<svg width="58" height="57" viewBox="0 0 58 57" fill="none" xmlns="http://www.w3.org/2000/svg">
<path d="M24.3298 6.12639C25.4778 5.87633 26.6712 5.72857 27.876 5.66037V0C26.1597 0.0681975 24.4889 0.295507 22.8635 0.659227L24.3298 6.12639Z" fill="url(#paint0_linear_1_60)"/>
<path d="M13.9753 11.4231C14.8618 10.6275 15.8052 9.9 16.8168 9.24076L13.9866 4.33057C12.5545 5.23987 11.2133 6.27419 9.97437 7.41081L13.9753 11.4231Z" fill="url(#paint1_linear_1_60)"/>
<path d="M18.7946 8.09275C19.8516 7.54717 20.9541 7.0925 22.1021 6.72878L20.6359 1.25024C19.0105 1.76173 17.4533 2.40963 15.9644 3.1939L18.7946 8.09275Z" fill="url(#paint2_linear_1_60)"/>
<path d="M10.1674 15.8898C10.8153 14.8896 11.5427 13.9348 12.3497 13.0483L8.34883 9.04736C7.21221 10.2863 6.17785 11.6275 5.26855 13.0596L10.1674 15.8898Z" fill="url(#paint3_linear_1_60)"/>
<path d="M6.58713 26.9608C6.64396 25.7446 6.80309 24.5625 7.05315 23.4145L1.58598 21.9482C1.22227 23.5736 1.00632 25.2445 0.926758 26.9608H6.58713Z" fill="url(#paint4_linear_1_60)"/>
<path d="M7.64403 21.1866C8.01912 20.0386 8.47378 18.9361 9.008 17.879L4.10915 15.0488C3.32487 16.5378 2.67701 18.095 2.16553 19.7203L7.64403 21.1866Z" fill="url(#paint5_linear_1_60)"/>
<path opacity="0.43" d="M53.9389 15.0488L49.04 17.879C49.5856 18.9361 50.0403 20.0386 50.404 21.1866L55.8825 19.7203C55.371 18.095 54.7232 16.5264 53.9389 15.0488Z" fill="#406EB2"/>
<path opacity="0.43" d="M45.7097 13.0483C46.5054 13.9348 47.2328 14.8782 47.892 15.8898L52.8022 13.0596C51.8929 11.6275 50.8586 10.2863 49.722 9.04736L45.7097 13.0483Z" fill="#406EB2"/>
<path opacity="0.43" d="M35.9463 6.72878C37.0943 7.10387 38.1968 7.55853 39.2539 8.09275L42.0841 3.1939C40.5951 2.40963 39.0379 1.76173 37.4125 1.25024L35.9463 6.72878Z" fill="#406EB2"/>
<path opacity="0.43" d="M41.2429 9.24065C42.2431 9.88852 43.1979 10.616 44.0845 11.423L48.0854 7.42208C46.8465 6.28545 45.5053 5.2511 44.0731 4.3418L41.2429 9.24065Z" fill="#406EB2"/>
<path opacity="0.43" d="M30.1721 5.66037C31.3883 5.7172 32.5704 5.87633 33.7184 6.12639L35.1846 0.659227C33.5593 0.295507 31.8884 0.0795637 30.1721 0V5.66037Z" fill="#406EB2"/>
<path opacity="0.43" d="M7.05315 32.8029C6.80309 31.6549 6.65532 30.4614 6.58713 29.2566H0.926758C0.994955 30.9729 1.22227 32.6437 1.58598 34.2691L7.05315 32.8029Z" fill="#406EB2"/>
<path opacity="0.43" d="M9.008 38.3269C8.46242 37.2698 8.00775 36.1673 7.64403 35.0193L2.16553 36.4855C2.67701 38.1109 3.32487 39.6681 4.10915 41.1571L9.008 38.3269Z" fill="#406EB2"/>
<path opacity="0.43" d="M44.0845 44.783C43.1979 45.5786 42.2545 46.306 41.2429 46.9653L44.0731 51.8755C45.5053 50.9662 46.8465 49.9319 48.0854 48.7952L44.0845 44.783Z" fill="#406EB2"/>
<path opacity="0.43" d="M50.404 35.0308C50.0289 36.1788 49.5743 37.2813 49.04 38.3383L53.9389 41.1686C54.7232 39.6796 55.371 38.1224 55.8825 36.497L50.404 35.0308Z" fill="#406EB2"/>
<path opacity="0.43" d="M39.2539 48.1133C38.1968 48.6589 37.0943 49.1135 35.9463 49.4772L37.4125 54.9557C39.0379 54.4443 40.5951 53.7964 42.0841 53.0121L39.2539 48.1133Z" fill="#406EB2"/>
<path opacity="0.43" d="M51.0063 23.403C51.2564 24.551 51.4042 25.7445 51.4724 26.9493H57.1327C57.0645 25.233 56.8372 23.5621 56.4735 21.9368L51.0063 23.403Z" fill="#406EB2"/>
<path opacity="0.43" d="M51.4611 29.2566C51.4043 30.4728 51.2452 31.6549 50.9951 32.8029L56.4623 34.2691C56.826 32.6437 57.042 30.9729 57.1215 29.2566H51.4611Z" fill="#406EB2"/>
<path opacity="0.43" d="M47.8808 40.3274C47.2329 41.3276 46.5055 42.2824 45.6985 43.169L49.6994 47.1699C50.836 45.931 51.8704 44.5898 52.7797 43.1576L47.8808 40.3274Z" fill="#406EB2"/>
<path opacity="0.43" d="M16.8054 46.9653C15.8052 46.3174 14.8504 45.59 13.9638 44.783L9.96289 48.7839C11.2018 49.9205 12.543 50.9548 13.9752 51.8641L16.8054 46.9653Z" fill="#406EB2"/>
<path opacity="0.43" d="M12.3499 43.1575C11.5542 42.2709 10.8268 41.3275 10.1675 40.3159L5.25732 43.1461C6.16662 44.5782 7.20094 45.9195 8.33757 47.1584L12.3499 43.1575Z" fill="#406EB2"/>
<path opacity="0.43" d="M27.876 50.5456C26.6599 50.4888 25.4778 50.3296 24.3298 50.0796L22.8635 55.5468C24.4889 55.9105 26.1597 56.1264 27.876 56.206V50.5456Z" fill="#406EB2"/>
<path opacity="0.43" d="M22.1021 49.4884C20.9541 49.1134 19.8516 48.6587 18.7946 48.1245L15.9644 53.0234C17.4533 53.8076 19.0105 54.4555 20.6359 54.967L22.1021 49.4884Z" fill="#406EB2"/>
<path opacity="0.43" d="M33.7184 50.0796C32.5704 50.3296 31.3769 50.4774 30.1721 50.5456V56.206C31.8884 56.1378 33.5593 55.9105 35.1846 55.5468L33.7184 50.0796Z" fill="#406EB2"/>
<path d="M20.6903 37.9993H19.475V29.9432L17.038 30.8383V29.7407L20.5008 28.4405H20.6903V37.9993ZM24.7869 33.2297L25.2704 28.4862H30.1446V29.6035H26.2962L26.0088 32.1973C26.4748 31.9229 27.0041 31.7857 27.5964 31.7857C28.4633 31.7857 29.1515 32.0732 29.6611 32.6482C30.1707 33.2188 30.4255 33.9919 30.4255 34.9676C30.4255 35.9477 30.1598 36.7208 29.6284 37.2871C29.1014 37.849 28.3631 38.1299 27.4135 38.1299C26.5728 38.1299 25.8868 37.8969 25.3554 37.4308C24.824 36.9648 24.5212 36.3201 24.4472 35.4969H25.5906C25.6646 36.0413 25.8585 36.453 26.1721 36.7317C26.4857 37.0061 26.8995 37.1434 27.4135 37.1434C27.9754 37.1434 28.4153 36.9517 28.7333 36.5684C29.0556 36.1851 29.2168 35.6558 29.2168 34.9807C29.2168 34.3447 29.0426 33.8351 28.6941 33.4518C28.35 33.0641 27.8905 32.8703 27.3155 32.8703C26.7884 32.8703 26.3746 32.9857 26.0741 33.2166L25.7539 33.4779L24.7869 33.2297ZM31.6408 30.3156C31.6408 29.745 31.8216 29.2746 32.1831 28.9043C32.549 28.5341 33.0172 28.349 33.5879 28.349C34.1672 28.349 34.6354 28.5363 34.9926 28.9109C35.3541 29.2811 35.5349 29.7624 35.5349 30.3548V30.8187C35.5349 31.3937 35.352 31.8641 34.9861 32.23C34.6245 32.5915 34.1628 32.7723 33.6009 32.7723C33.0347 32.7723 32.5664 32.5915 32.1962 32.23C31.8259 31.8641 31.6408 31.3784 31.6408 30.773V30.3156ZM32.5425 30.8187C32.5425 31.1585 32.6383 31.4394 32.8299 31.6616C33.0216 31.8794 33.2786 31.9883 33.6009 31.9883C33.9102 31.9883 34.1585 31.8815 34.3458 31.6681C34.5374 31.4547 34.6332 31.1628 34.6332 30.7926V30.3156C34.6332 29.9759 34.5396 29.6949 34.3523 29.4728C34.165 29.2506 33.9102 29.1396 33.5879 29.1396C33.2655 29.1396 33.0107 29.2506 32.8234 29.4728C32.6361 29.6949 32.5425 29.9846 32.5425 30.3418V30.8187ZM36.2732 35.6667C36.2732 35.0961 36.454 34.6279 36.8155 34.262C37.1814 33.8917 37.6496 33.7066 38.2203 33.7066C38.7909 33.7066 39.2591 33.8896 39.625 34.2555C39.9909 34.6213 40.1738 35.107 40.1738 35.7125V36.1764C40.1738 36.747 39.9909 37.2174 39.625 37.5876C39.2635 37.9535 38.7996 38.1365 38.2333 38.1365C37.6671 38.1365 37.1988 37.9557 36.8286 37.5942C36.4583 37.2283 36.2732 36.7426 36.2732 36.1372V35.6667ZM37.1749 36.1764C37.1749 36.5205 37.2707 36.8036 37.4623 37.0257C37.654 37.2435 37.911 37.3524 38.2333 37.3524C38.5469 37.3524 38.7974 37.2457 38.9847 37.0323C39.172 36.8145 39.2656 36.5205 39.2656 36.1502V35.6667C39.2656 35.3226 39.1698 35.0417 38.9782 34.8239C38.7909 34.6061 38.5382 34.4972 38.2203 34.4972C37.911 34.4972 37.6584 34.6061 37.4623 34.8239C37.2707 35.0373 37.1749 35.327 37.1749 35.6929V36.1764ZM33.8753 37.2806L33.1893 36.8493L37.8348 29.414L38.5208 29.8452L33.8753 37.2806Z" fill="#F5F7F6"/>
<path d="M17.1614 23.8323V19.3476H18.4273C18.8175 19.3476 19.1624 19.4339 19.4622 19.6064C19.762 19.7789 19.993 20.0242 20.1553 20.3425C20.3195 20.6608 20.4027 21.0263 20.4047 21.439V21.7255C20.4047 22.1485 20.3226 22.5191 20.1583 22.8374C19.9961 23.1557 19.7631 23.4 19.4592 23.5705C19.1573 23.7409 18.8051 23.8282 18.4027 23.8323H17.1614ZM17.7528 19.8343V23.3487H18.375C18.8308 23.3487 19.185 23.207 19.4376 22.9236C19.6922 22.6403 19.8195 22.2368 19.8195 21.7132V21.4514C19.8195 20.9421 19.6994 20.5468 19.4592 20.2655C19.221 19.9821 18.8821 19.8384 18.4427 19.8343H17.7528ZM23.7097 22.6618H21.8308L21.4089 23.8323H20.799L22.5115 19.3476H23.029L24.7446 23.8323H24.1378L23.7097 22.6618ZM22.0095 22.1752H23.5341L22.7703 20.0776L22.0095 22.1752ZM28.0465 19.8343H26.605V23.8323H26.0167V19.8343H24.5783V19.3476H28.0465V19.8343ZM30.9418 22.6618H29.0629L28.6409 23.8323H28.0311L29.7436 19.3476H30.2611L31.9767 23.8323H31.3699L30.9418 22.6618ZM29.2415 22.1752H30.7662L30.0023 20.0776L29.2415 22.1752ZM36.8094 21.9195C36.8094 22.5869 36.6954 23.0828 36.4675 23.4072C36.2395 23.7317 35.8833 23.8939 35.3987 23.8939C34.9202 23.8939 34.566 23.7358 34.336 23.4195C34.1061 23.1013 33.987 22.6269 33.9787 21.9965V21.2357C33.9787 20.5766 34.0927 20.0869 34.3206 19.7665C34.5486 19.4462 34.9058 19.286 35.3925 19.286C35.8751 19.286 36.2303 19.4411 36.4582 19.7511C36.6861 20.0592 36.8032 20.5355 36.8094 21.1803V21.9195ZM36.2395 21.1403C36.2395 20.6577 36.1718 20.3066 36.0362 20.0869C35.9007 19.8651 35.6861 19.7542 35.3925 19.7542C35.1009 19.7542 34.8884 19.8641 34.7549 20.0838C34.6215 20.3035 34.5527 20.6413 34.5486 21.0971V22.0089C34.5486 22.4935 34.6184 22.8518 34.758 23.0838C34.8997 23.3138 35.1132 23.4288 35.3987 23.4288C35.68 23.4288 35.8884 23.3199 36.0239 23.1023C36.1615 22.8846 36.2334 22.5417 36.2395 22.0735V21.1403ZM39.412 23.8323H38.8391V20.0345L37.6903 20.4565V19.939L39.3227 19.3261H39.412V23.8323Z" fill="#F5F7F6"/>
<defs>
<linearGradient id="paint0_linear_1_60" x1="-228.613" y1="3.06638" x2="42.1917" y2="3.06638" gradientUnits="userSpaceOnUse">
<stop offset="0.0101" stop-color="#F408AB"/>
<stop offset="1" stop-color="#27B7FF"/>
</linearGradient>
<linearGradient id="paint1_linear_1_60" x1="-228.611" y1="7.88251" x2="42.1919" y2="7.88251" gradientUnits="userSpaceOnUse">
<stop offset="0.0101" stop-color="#F408AB"/>
<stop offset="1" stop-color="#27B7FF"/>
</linearGradient>
<linearGradient id="paint2_linear_1_60" x1="-228.61" y1="4.67127" x2="42.1918" y2="4.67127" gradientUnits="userSpaceOnUse">
<stop offset="0.0101" stop-color="#F408AB"/>
<stop offset="1" stop-color="#27B7FF"/>
</linearGradient>
<linearGradient id="paint3_linear_1_60" x1="-228.607" y1="12.4679" x2="42.1911" y2="12.4679" gradientUnits="userSpaceOnUse">
<stop offset="0.0101" stop-color="#F408AB"/>
<stop offset="1" stop-color="#27B7FF"/>
</linearGradient>
<linearGradient id="paint4_linear_1_60" x1="-228.605" y1="24.4485" x2="42.191" y2="24.4485" gradientUnits="userSpaceOnUse">
<stop offset="0.0101" stop-color="#F408AB"/>
<stop offset="1" stop-color="#27B7FF"/>
</linearGradient>
<linearGradient id="paint5_linear_1_60" x1="-228.608" y1="18.1166" x2="42.1914" y2="18.1166" gradientUnits="userSpaceOnUse">
<stop offset="0.0101" stop-color="#F408AB"/>
<stop offset="1" stop-color="#27B7FF"/>
</linearGradient>
</defs>
</svg>
