<svg width="57" height="57" viewBox="0 0 57 57" fill="none" xmlns="http://www.w3.org/2000/svg">
<path d="M24.1247 6.12639C25.2727 5.87633 26.4661 5.72857 27.671 5.66037V0C25.9547 0.0681975 24.2838 0.295507 22.6584 0.659227L24.1247 6.12639Z" fill="url(#paint0_linear_1_2)"/>
<path d="M13.7587 11.4231C14.6453 10.6275 15.5887 9.9 16.6003 9.24076L13.7701 4.33057C12.3379 5.23987 10.9967 6.27419 9.75781 7.41081L13.7587 11.4231Z" fill="url(#paint1_linear_1_2)"/>
<path d="M18.5892 8.09275C19.6463 7.54717 20.7488 7.0925 21.8968 6.72878L20.4306 1.25024C18.8052 1.76173 17.248 2.40963 15.759 3.1939L18.5892 8.09275Z" fill="url(#paint2_linear_1_2)"/>
<path d="M9.96233 15.8898C10.6102 14.8896 11.3377 13.9348 12.1447 13.0483L8.14372 9.04736C7.0071 10.2863 5.97278 11.6275 5.06348 13.0596L9.96233 15.8898Z" fill="url(#paint3_linear_1_2)"/>
<path d="M6.38184 26.9608C6.43867 25.7446 6.5978 24.5625 6.84786 23.4145L1.3807 21.9482C1.01698 23.5736 0.800999 25.2445 0.721436 26.9608H6.38184Z" fill="url(#paint4_linear_1_2)"/>
<path d="M7.43895 21.1866C7.81404 20.0386 8.2687 18.9361 8.80292 17.879L3.90407 15.0488C3.1198 16.5378 2.47193 18.095 1.96045 19.7203L7.43895 21.1866Z" fill="url(#paint5_linear_1_2)"/>
<path opacity="0.43" d="M53.7336 15.0488L48.8347 17.879C49.3803 18.9361 49.8349 20.0386 50.1986 21.1866L55.6772 19.7203C55.1657 18.095 54.5178 16.5264 53.7336 15.0488Z" fill="#406EB2"/>
<path opacity="0.43" d="M45.4932 13.0483C46.2888 13.9348 47.0162 14.8782 47.6755 15.8898L52.5857 13.0596C51.6764 11.6275 50.6421 10.2863 49.5054 9.04736L45.4932 13.0483Z" fill="#406EB2"/>
<path opacity="0.43" d="M35.741 6.72878C36.889 7.10387 37.9915 7.55853 39.0485 8.09275L41.8788 3.1939C40.3898 2.40963 38.8326 1.76173 37.2072 1.25024L35.741 6.72878Z" fill="#406EB2"/>
<path opacity="0.43" d="M41.0376 9.24065C42.0378 9.88852 42.9926 10.616 43.8792 11.423L47.8801 7.42208C46.6412 6.28545 45.3 5.2511 43.8678 4.3418L41.0376 9.24065Z" fill="#406EB2"/>
<path opacity="0.43" d="M29.9668 5.66037C31.183 5.7172 32.3651 5.87633 33.5131 6.12639L34.9793 0.659227C33.3539 0.295507 31.6831 0.0795637 29.9668 0V5.66037Z" fill="#406EB2"/>
<path d="M6.83659 32.8029C6.58654 31.6549 6.43877 30.4614 6.37057 29.2566H0.710205C0.778403 30.9729 1.00571 32.6437 1.36943 34.2691L6.83659 32.8029Z" fill="url(#paint6_linear_1_2)"/>
<path d="M8.80292 38.3269C8.25734 37.2698 7.80267 36.1673 7.43895 35.0193L1.96045 36.4855C2.47193 38.1109 3.1198 39.6681 3.90407 41.1571L8.80292 38.3269Z" fill="url(#paint7_linear_1_2)"/>
<path d="M43.8677 44.783C42.9811 45.5786 42.0377 46.306 41.0261 46.9653L43.8563 51.8755C45.2885 50.9662 46.6297 49.9319 47.8686 48.7952L43.8677 44.783Z" fill="url(#paint8_linear_1_2)"/>
<path d="M50.1986 35.0308C49.8236 36.1788 49.3689 37.2813 48.8347 38.3383L53.7336 41.1686C54.5178 39.6796 55.1657 38.1224 55.6772 36.497L50.1986 35.0308Z" fill="url(#paint9_linear_1_2)"/>
<path d="M39.0485 48.1133C37.9915 48.6589 36.889 49.1135 35.741 49.4772L37.2072 54.9557C38.8326 54.4443 40.3898 53.7964 41.8788 53.0121L39.0485 48.1133Z" fill="url(#paint10_linear_1_2)"/>
<path opacity="0.43" d="M50.79 23.403C51.0401 24.551 51.1879 25.7445 51.2561 26.9493H56.9164C56.8482 25.233 56.6209 23.5621 56.2572 21.9368L50.79 23.403Z" fill="#406EB2"/>
<path d="M51.2561 29.2566C51.1992 30.4728 51.0401 31.6549 50.79 32.8029L56.2572 34.2691C56.6209 32.6437 56.8369 30.9729 56.9164 29.2566H51.2561Z" fill="url(#paint11_linear_1_2)"/>
<path d="M47.6755 40.3274C47.0276 41.3276 46.3002 42.2824 45.4932 43.169L49.4941 47.1699C50.6307 45.931 51.6651 44.5898 52.5743 43.1576L47.6755 40.3274Z" fill="url(#paint12_linear_1_2)"/>
<path d="M16.6003 46.9653C15.6001 46.3174 14.6453 45.59 13.7587 44.783L9.75781 48.7839C10.9967 49.9205 12.3379 50.9548 13.7701 51.8641L16.6003 46.9653Z" fill="url(#paint13_linear_1_2)"/>
<path d="M12.1333 43.1575C11.3377 42.2709 10.6102 41.3275 9.951 40.3159L5.04077 43.1461C5.95007 44.5782 6.98439 45.9195 8.12102 47.1584L12.1333 43.1575Z" fill="url(#paint14_linear_1_2)"/>
<path d="M27.671 50.5456C26.4548 50.4888 25.2727 50.3296 24.1247 50.0796L22.6584 55.5468C24.2838 55.9105 25.9547 56.1264 27.671 56.206V50.5456Z" fill="url(#paint15_linear_1_2)"/>
<path d="M21.8968 49.4884C20.7488 49.1134 19.6463 48.6587 18.5892 48.1245L15.759 53.0234C17.248 53.8076 18.8052 54.4555 20.4306 54.967L21.8968 49.4884Z" fill="url(#paint16_linear_1_2)"/>
<path d="M33.5131 50.0796C32.3651 50.3296 31.1716 50.4774 29.9668 50.5456V56.206C31.6831 56.1378 33.3539 55.9105 34.9793 55.5468L33.5131 50.0796Z" fill="url(#paint17_linear_1_2)"/>
<path d="M24.1691 28.1657L20.2292 36.9993H18.9617L22.8885 28.4793H17.7399V27.4862H24.1691V28.1657ZM26.0965 32.2297L26.58 27.4862H31.4542V28.6035H27.6058L27.3183 31.1973C27.7844 30.9229 28.3136 30.7857 28.906 30.7857C29.7728 30.7857 30.461 31.0732 30.9707 31.6482C31.4803 32.2188 31.7351 32.9919 31.7351 33.9676C31.7351 34.9477 31.4694 35.7208 30.938 36.2871C30.4109 36.849 29.6726 37.1299 28.7231 37.1299C27.8824 37.1299 27.1964 36.8969 26.665 36.4308C26.1336 35.9648 25.8308 35.3201 25.7568 34.4969H26.9002C26.9742 35.0413 27.168 35.453 27.4817 35.7317C27.7953 36.0061 28.2091 36.1434 28.7231 36.1434C29.285 36.1434 29.7249 35.9517 30.0429 35.5684C30.3652 35.1851 30.5264 34.6558 30.5264 33.9807C30.5264 33.3447 30.3521 32.8351 30.0037 32.4518C29.6596 32.0641 29.2 31.8703 28.6251 31.8703C28.098 31.8703 27.6842 31.9857 27.3837 32.2166L27.0635 32.4779L26.0965 32.2297ZM32.9504 29.3156C32.9504 28.745 33.1311 28.2746 33.4927 27.9043C33.8586 27.5341 34.3268 27.349 34.8974 27.349C35.4767 27.349 35.945 27.5363 36.3022 27.9109C36.6637 28.2811 36.8445 28.7624 36.8445 29.3548V29.8187C36.8445 30.3937 36.6615 30.8641 36.2956 31.23C35.9341 31.5915 35.4724 31.7723 34.9105 31.7723C34.3442 31.7723 33.876 31.5915 33.5057 31.23C33.1355 30.8641 32.9504 30.3784 32.9504 29.773V29.3156ZM33.852 29.8187C33.852 30.1585 33.9479 30.4394 34.1395 30.6616C34.3312 30.8794 34.5882 30.9883 34.9105 30.9883C35.2198 30.9883 35.468 30.8815 35.6553 30.6681C35.847 30.4547 35.9428 30.1628 35.9428 29.7926V29.3156C35.9428 28.9759 35.8492 28.6949 35.6619 28.4728C35.4746 28.2506 35.2198 28.1396 34.8974 28.1396C34.5751 28.1396 34.3203 28.2506 34.133 28.4728C33.9457 28.6949 33.852 28.9846 33.852 29.3418V29.8187ZM37.5828 34.6667C37.5828 34.0961 37.7635 33.6279 38.1251 33.262C38.491 32.8917 38.9592 32.7066 39.5298 32.7066C40.1004 32.7066 40.5687 32.8896 40.9346 33.2555C41.3005 33.6213 41.4834 34.107 41.4834 34.7125V35.1764C41.4834 35.747 41.3005 36.2174 40.9346 36.5876C40.573 36.9535 40.1091 37.1365 39.5429 37.1365C38.9766 37.1365 38.5084 36.9557 38.1381 36.5942C37.7679 36.2283 37.5828 35.7426 37.5828 35.1372V34.6667ZM38.4844 35.1764C38.4844 35.5205 38.5803 35.8036 38.7719 36.0257C38.9636 36.2435 39.2206 36.3524 39.5429 36.3524C39.8565 36.3524 40.107 36.2457 40.2943 36.0323C40.4816 35.8145 40.5752 35.5205 40.5752 35.1502V34.6667C40.5752 34.3226 40.4794 34.0417 40.2877 33.8239C40.1004 33.6061 39.8478 33.4972 39.5298 33.4972C39.2206 33.4972 38.9679 33.6061 38.7719 33.8239C38.5803 34.0373 38.4844 34.327 38.4844 34.6929V35.1764ZM35.1849 36.2806L34.4989 35.8493L39.1443 28.414L39.8304 28.8452L35.1849 36.2806Z" fill="#F5F7F6"/>
<path d="M18.471 22.8323V18.3476H19.7369C20.127 18.3476 20.472 18.4339 20.7718 18.6064C21.0716 18.7789 21.3026 19.0242 21.4648 19.3425C21.6291 19.6608 21.7123 20.0263 21.7143 20.439V20.7255C21.7143 21.1485 21.6322 21.5191 21.4679 21.8374C21.3057 22.1557 21.0726 22.4 20.7687 22.5705C20.4669 22.7409 20.1147 22.8282 19.7123 22.8323H18.471ZM19.0623 18.8343V22.3487H19.6845C20.1404 22.3487 20.4946 22.207 20.7472 21.9236C21.0018 21.6403 21.1291 21.2368 21.1291 20.7132V20.4514C21.1291 19.9421 21.009 19.5468 20.7687 19.2655C20.5305 18.9821 20.1917 18.8384 19.7523 18.8343H19.0623ZM25.0193 21.6618H23.1404L22.7184 22.8323H22.1086L23.8211 18.3476H24.3386L26.0542 22.8323H25.4474L25.0193 21.6618ZM23.319 21.1752H24.8437L24.0798 19.0776L23.319 21.1752ZM29.356 18.8343H27.9146V22.8323H27.3263V18.8343H25.8878V18.3476H29.356V18.8343ZM32.2513 21.6618H30.3725L29.9505 22.8323H29.3406L31.0532 18.3476H31.5706L33.2862 22.8323H32.6795L32.2513 21.6618ZM30.5511 21.1752H32.0758L31.3119 19.0776L30.5511 21.1752ZM38.1189 20.9195C38.1189 21.5869 38.005 22.0828 37.777 22.4072C37.5491 22.7317 37.1928 22.8939 36.7082 22.8939C36.2298 22.8939 35.8756 22.7358 35.6456 22.4195C35.4156 22.1013 35.2965 21.6269 35.2883 20.9965V20.2357C35.2883 19.5766 35.4023 19.0869 35.6302 18.7665C35.8581 18.4462 36.2154 18.286 36.7021 18.286C37.1846 18.286 37.5399 18.4411 37.7678 18.7511C37.9957 19.0592 38.1128 19.5355 38.1189 20.1803V20.9195ZM37.5491 20.1403C37.5491 19.6577 37.4813 19.3066 37.3458 19.0869C37.2103 18.8651 36.9957 18.7542 36.7021 18.7542C36.4105 18.7542 36.198 18.8641 36.0645 19.0838C35.931 19.3035 35.8622 19.6413 35.8581 20.0971V21.0089C35.8581 21.4935 35.9279 21.8518 36.0676 22.0838C36.2093 22.3138 36.4228 22.4288 36.7082 22.4288C36.9896 22.4288 37.198 22.32 37.3335 22.1023C37.4711 21.8846 37.5429 21.5417 37.5491 21.0735V20.1403ZM40.7216 22.8323H40.1487V19.0345L38.9998 19.4565V18.939L40.6323 18.3261H40.7216V22.8323Z" fill="#F5F7F6"/>
<defs>
<linearGradient id="paint0_linear_1_2" x1="-78.6104" y1="3.06638" x2="192.193" y2="3.06638" gradientUnits="userSpaceOnUse">
<stop offset="0.0101" stop-color="#F408AB"/>
<stop offset="1" stop-color="#27B7FF"/>
</linearGradient>
<linearGradient id="paint1_linear_1_2" x1="-78.6099" y1="7.88251" x2="192.193" y2="7.88251" gradientUnits="userSpaceOnUse">
<stop offset="0.0101" stop-color="#F408AB"/>
<stop offset="1" stop-color="#27B7FF"/>
</linearGradient>
<linearGradient id="paint2_linear_1_2" x1="-78.6099" y1="4.67127" x2="192.192" y2="4.67127" gradientUnits="userSpaceOnUse">
<stop offset="0.0101" stop-color="#F408AB"/>
<stop offset="1" stop-color="#27B7FF"/>
</linearGradient>
<linearGradient id="paint3_linear_1_2" x1="-78.6085" y1="12.4679" x2="192.189" y2="12.4679" gradientUnits="userSpaceOnUse">
<stop offset="0.0101" stop-color="#F408AB"/>
<stop offset="1" stop-color="#27B7FF"/>
</linearGradient>
<linearGradient id="paint4_linear_1_2" x1="-78.6087" y1="24.4485" x2="192.19" y2="24.4485" gradientUnits="userSpaceOnUse">
<stop offset="0.0101" stop-color="#F408AB"/>
<stop offset="1" stop-color="#27B7FF"/>
</linearGradient>
<linearGradient id="paint5_linear_1_2" x1="-78.6099" y1="18.1166" x2="192.194" y2="18.1166" gradientUnits="userSpaceOnUse">
<stop offset="0.0101" stop-color="#F408AB"/>
<stop offset="1" stop-color="#27B7FF"/>
</linearGradient>
<linearGradient id="paint6_linear_1_2" x1="-78.6081" y1="31.7625" x2="192.189" y2="31.7625" gradientUnits="userSpaceOnUse">
<stop offset="0.0101" stop-color="#F408AB"/>
<stop offset="1" stop-color="#27B7FF"/>
</linearGradient>
<linearGradient id="paint7_linear_1_2" x1="-78.6099" y1="38.0943" x2="192.194" y2="38.0943" gradientUnits="userSpaceOnUse">
<stop offset="0.0101" stop-color="#F408AB"/>
<stop offset="1" stop-color="#27B7FF"/>
</linearGradient>
<linearGradient id="paint8_linear_1_2" x1="-78.608" y1="48.3285" x2="192.19" y2="48.3285" gradientUnits="userSpaceOnUse">
<stop offset="0.0101" stop-color="#F408AB"/>
<stop offset="1" stop-color="#27B7FF"/>
</linearGradient>
<linearGradient id="paint9_linear_1_2" x1="-78.6087" y1="38.0944" x2="192.19" y2="38.0944" gradientUnits="userSpaceOnUse">
<stop offset="0.0101" stop-color="#F408AB"/>
<stop offset="1" stop-color="#27B7FF"/>
</linearGradient>
<linearGradient id="paint10_linear_1_2" x1="-78.6107" y1="51.5397" x2="192.193" y2="51.5397" gradientUnits="userSpaceOnUse">
<stop offset="0.0101" stop-color="#F408AB"/>
<stop offset="1" stop-color="#27B7FF"/>
</linearGradient>
<linearGradient id="paint11_linear_1_2" x1="-78.6092" y1="31.7625" x2="192.192" y2="31.7625" gradientUnits="userSpaceOnUse">
<stop offset="0.0101" stop-color="#F408AB"/>
<stop offset="1" stop-color="#27B7FF"/>
</linearGradient>
<linearGradient id="paint12_linear_1_2" x1="-78.6101" y1="43.7431" x2="192.192" y2="43.7431" gradientUnits="userSpaceOnUse">
<stop offset="0.0101" stop-color="#F408AB"/>
<stop offset="1" stop-color="#27B7FF"/>
</linearGradient>
<linearGradient id="paint13_linear_1_2" x1="-78.6099" y1="48.3285" x2="192.193" y2="48.3285" gradientUnits="userSpaceOnUse">
<stop offset="0.0101" stop-color="#F408AB"/>
<stop offset="1" stop-color="#27B7FF"/>
</linearGradient>
<linearGradient id="paint14_linear_1_2" x1="-78.6082" y1="43.7429" x2="192.189" y2="43.7429" gradientUnits="userSpaceOnUse">
<stop offset="0.0101" stop-color="#F408AB"/>
<stop offset="1" stop-color="#27B7FF"/>
</linearGradient>
<linearGradient id="paint15_linear_1_2" x1="-78.6104" y1="53.1446" x2="192.193" y2="53.1446" gradientUnits="userSpaceOnUse">
<stop offset="0.0101" stop-color="#F408AB"/>
<stop offset="1" stop-color="#27B7FF"/>
</linearGradient>
<linearGradient id="paint16_linear_1_2" x1="-78.6099" y1="51.5396" x2="192.192" y2="51.5396" gradientUnits="userSpaceOnUse">
<stop offset="0.0101" stop-color="#F408AB"/>
<stop offset="1" stop-color="#27B7FF"/>
</linearGradient>
<linearGradient id="paint17_linear_1_2" x1="-78.6104" y1="53.1446" x2="192.193" y2="53.1446" gradientUnits="userSpaceOnUse">
<stop offset="0.0101" stop-color="#F408AB"/>
<stop offset="1" stop-color="#27B7FF"/>
</linearGradient>
</defs>
</svg>
