<svg width="57" height="57" viewBox="0 0 57 57" fill="none" xmlns="http://www.w3.org/2000/svg">
<path d="M23.5025 29.969C23.5025 30.4438 23.3762 30.8663 23.1235 31.2365C22.8752 31.6068 22.5377 31.8964 22.1108 32.1055C22.6074 32.319 22.9994 32.6304 23.2869 33.0398C23.5787 33.4493 23.7246 33.9132 23.7246 34.4315C23.7246 35.2548 23.4458 35.9103 22.8883 36.3982C22.3351 36.886 21.6055 37.1299 20.6995 37.1299C19.7848 37.1299 19.0508 36.886 18.4977 36.3982C17.9488 35.906 17.6744 35.2504 17.6744 34.4315C17.6744 33.9175 17.8138 33.4536 18.0926 33.0398C18.3757 32.626 18.7655 32.3124 19.2621 32.099C18.8396 31.8899 18.5064 31.6002 18.2624 31.23C18.0185 30.8598 17.8966 30.4394 17.8966 29.969C17.8966 29.1675 18.1535 28.5316 18.6675 28.0612C19.1815 27.5907 19.8588 27.3555 20.6995 27.3555C21.5358 27.3555 22.211 27.5907 22.725 28.0612C23.2433 28.5316 23.5025 29.1675 23.5025 29.969ZM22.5159 34.4054C22.5159 33.874 22.346 33.4406 22.0063 33.1052C21.6709 32.7698 21.2309 32.6021 20.6864 32.6021C20.142 32.6021 19.7042 32.7676 19.3732 33.0986C19.0465 33.4297 18.8831 33.8653 18.8831 34.4054C18.8831 34.9455 19.0421 35.3702 19.3601 35.6795C19.6824 35.9887 20.1289 36.1434 20.6995 36.1434C21.2658 36.1434 21.7101 35.9887 22.0324 35.6795C22.3547 35.3658 22.5159 34.9412 22.5159 34.4054ZM20.6995 28.3486C20.2247 28.3486 19.8392 28.4967 19.543 28.7929C19.2512 29.0848 19.1053 29.4833 19.1053 29.9886C19.1053 30.4721 19.249 30.8641 19.5365 31.1647C19.8284 31.4609 20.216 31.609 20.6995 31.609C21.183 31.609 21.5685 31.4609 21.856 31.1647C22.1478 30.8641 22.2937 30.4721 22.2937 29.9886C22.2937 29.5051 22.1435 29.1109 21.8429 28.806C21.5424 28.5011 21.1612 28.3486 20.6995 28.3486ZM31.2122 32.9418C31.2122 34.3575 30.9705 35.4094 30.487 36.0976C30.0035 36.7858 29.2478 37.1299 28.2198 37.1299C27.2049 37.1299 26.4535 36.7945 25.9657 36.1238C25.4778 35.4486 25.2252 34.4424 25.2078 33.1052V31.4914C25.2078 30.0931 25.4495 29.0543 25.933 28.3748C26.4165 27.6953 27.1744 27.3555 28.2067 27.3555C29.2304 27.3555 29.9839 27.6844 30.4674 28.3421C30.9509 28.9955 31.1992 30.006 31.2122 31.3737V32.9418ZM30.0035 31.2888C30.0035 30.2652 29.8598 29.5204 29.5723 29.0543C29.2848 28.5839 28.8296 28.3486 28.2067 28.3486C27.5882 28.3486 27.1374 28.5817 26.8543 29.0477C26.5711 29.5138 26.4252 30.2303 26.4165 31.1973V33.1313C26.4165 34.1593 26.5646 34.9194 26.8608 35.4116C27.1613 35.8994 27.6143 36.1434 28.2198 36.1434C28.8165 36.1434 29.2587 35.9125 29.5461 35.4508C29.838 34.9891 29.9904 34.2616 30.0035 33.2685V31.2888ZM32.6562 29.3156C32.6562 28.745 32.837 28.2746 33.1985 27.9043C33.5644 27.5341 34.0326 27.349 34.6032 27.349C35.1826 27.349 35.6508 27.5363 36.008 27.9109C36.3695 28.2811 36.5503 28.7624 36.5503 29.3548V29.8187C36.5503 30.3937 36.3673 30.8641 36.0014 31.23C35.6399 31.5915 35.1782 31.7723 34.6163 31.7723C34.05 31.7723 33.5818 31.5915 33.2116 31.23C32.8413 30.8641 32.6562 30.3784 32.6562 29.773V29.3156ZM33.5578 29.8187C33.5578 30.1585 33.6537 30.4394 33.8453 30.6616C34.037 30.8794 34.294 30.9883 34.6163 30.9883C34.9256 30.9883 35.1738 30.8815 35.3611 30.6681C35.5528 30.4547 35.6486 30.1628 35.6486 29.7926V29.3156C35.6486 28.9759 35.555 28.6949 35.3677 28.4728C35.1804 28.2506 34.9256 28.1396 34.6032 28.1396C34.2809 28.1396 34.0261 28.2506 33.8388 28.4728C33.6515 28.6949 33.5578 28.9846 33.5578 29.3418V29.8187ZM37.2886 34.6667C37.2886 34.0961 37.4694 33.6279 37.8309 33.262C38.1968 32.8917 38.665 32.7066 39.2356 32.7066C39.8062 32.7066 40.2745 32.8896 40.6404 33.2555C41.0063 33.6213 41.1892 34.107 41.1892 34.7125V35.1764C41.1892 35.747 41.0063 36.2174 40.6404 36.5876C40.2788 36.9535 39.815 37.1365 39.2487 37.1365C38.6824 37.1365 38.2142 36.9557 37.844 36.5942C37.4737 36.2283 37.2886 35.7426 37.2886 35.1372V34.6667ZM38.1902 35.1764C38.1902 35.5205 38.2861 35.8036 38.4777 36.0257C38.6694 36.2435 38.9264 36.3524 39.2487 36.3524C39.5623 36.3524 39.8128 36.2457 40.0001 36.0323C40.1874 35.8145 40.281 35.5205 40.281 35.1502V34.6667C40.281 34.3226 40.1852 34.0417 39.9935 33.8239C39.8062 33.6061 39.5536 33.4972 39.2356 33.4972C38.9264 33.4972 38.6737 33.6061 38.4777 33.8239C38.2861 34.0373 38.1902 34.327 38.1902 34.6929V35.1764ZM34.8907 36.2806L34.2047 35.8493L38.8501 28.414L39.5362 28.8452L34.8907 36.2806Z" fill="#F5F7F6"/>
<path d="M18.1768 22.8323V18.3476H19.4427C19.8329 18.3476 20.1778 18.4339 20.4776 18.6064C20.7774 18.7789 21.0084 19.0242 21.1706 19.3425C21.3349 19.6608 21.4181 20.0263 21.4201 20.439V20.7255C21.4201 21.1485 21.338 21.5191 21.1737 21.8374C21.0115 22.1557 20.7784 22.4 20.4745 22.5705C20.1727 22.7409 19.8205 22.8282 19.4181 22.8323H18.1768ZM18.7682 18.8343V22.3487H19.3904C19.8462 22.3487 20.2004 22.207 20.453 21.9236C20.7076 21.6403 20.8349 21.2368 20.8349 20.7132V20.4514C20.8349 19.9421 20.7148 19.5468 20.4745 19.2655C20.2364 18.9821 19.8975 18.8384 19.4581 18.8343H18.7682ZM24.7251 21.6618H22.8462L22.4242 22.8323H21.8144L23.5269 18.3476H24.0444L25.76 22.8323H25.1532L24.7251 21.6618ZM23.0249 21.1752H24.5495L23.7856 19.0776L23.0249 21.1752ZM29.0619 18.8343H27.6204V22.8323H27.0321V18.8343H25.5937V18.3476H29.0619V18.8343ZM31.9571 21.6618H30.0783L29.6563 22.8323H29.0465L30.759 18.3476H31.2764L32.9921 22.8323H32.3853L31.9571 21.6618ZM30.2569 21.1752H31.7816L31.0177 19.0776L30.2569 21.1752ZM37.8247 20.9195C37.8247 21.5869 37.7108 22.0828 37.4828 22.4072C37.2549 22.7317 36.8986 22.8939 36.414 22.8939C35.9356 22.8939 35.5814 22.7358 35.3514 22.4195C35.1214 22.1013 35.0023 21.6269 34.9941 20.9965V20.2357C34.9941 19.5766 35.1081 19.0869 35.336 18.7665C35.5639 18.4462 35.9212 18.286 36.4079 18.286C36.8904 18.286 37.2457 18.4411 37.4736 18.7511C37.7015 19.0592 37.8186 19.5355 37.8247 20.1803V20.9195ZM37.2549 20.1403C37.2549 19.6577 37.1872 19.3066 37.0516 19.0869C36.9161 18.8651 36.7015 18.7542 36.4079 18.7542C36.1163 18.7542 35.9038 18.8641 35.7703 19.0838C35.6368 19.3035 35.568 19.6413 35.5639 20.0971V21.0089C35.5639 21.4935 35.6338 21.8518 35.7734 22.0838C35.9151 22.3138 36.1286 22.4288 36.414 22.4288C36.6954 22.4288 36.9038 22.3199 37.0393 22.1023C37.1769 21.8846 37.2488 21.5417 37.2549 21.0735V20.1403ZM40.4274 22.8323H39.8545V19.0345L38.7056 19.4565V18.939L40.3381 18.3261H40.4274V22.8323Z" fill="#F5F7F6"/>
<path d="M23.403 6.12639C24.551 5.87633 25.7445 5.72857 26.9493 5.66037V0C25.233 0.0681975 23.5621 0.295507 21.9368 0.659227L23.403 6.12639Z" fill="url(#paint0_linear_1_30)"/>
<path d="M13.0485 11.4231C13.9351 10.6275 14.8785 9.9 15.8901 9.24076L13.0599 4.33057C11.6277 5.23987 10.2865 6.27419 9.04761 7.41081L13.0485 11.4231Z" fill="url(#paint1_linear_1_30)"/>
<path d="M17.879 8.09275C18.9361 7.54717 20.0386 7.0925 21.1866 6.72878L19.7204 1.25024C18.095 1.76173 16.5378 2.40963 15.0488 3.1939L17.879 8.09275Z" fill="url(#paint2_linear_1_30)"/>
<path d="M9.24065 15.8898C9.88852 14.8896 10.6159 13.9348 11.4229 13.0483L7.42204 9.04736C6.28542 10.2863 5.2511 11.6275 4.3418 13.0596L9.24065 15.8898Z" fill="url(#paint3_linear_1_30)"/>
<path d="M5.66039 26.9608C5.71722 25.7446 5.87635 24.5625 6.12641 23.4145L0.659244 21.9482C0.295525 23.5736 0.0795637 25.2445 0 26.9608H5.66039Z" fill="url(#paint4_linear_1_30)"/>
<path d="M6.71731 21.1866C7.0924 20.0386 7.54706 18.9361 8.08127 17.879L3.18241 15.0488C2.39813 16.5378 1.75025 18.095 1.23877 19.7203L6.71731 21.1866Z" fill="url(#paint5_linear_1_30)"/>
<path d="M53.0234 15.0488L48.1245 17.879C48.6701 18.9361 49.1248 20.0386 49.4885 21.1866L54.967 19.7203C54.4555 18.095 53.7963 16.5264 53.0234 15.0488Z" fill="url(#paint6_linear_1_30)"/>
<path d="M44.783 13.0483C45.5786 13.9348 46.3061 14.8782 46.9653 15.8898L51.8755 13.0596C50.9662 11.6275 49.9319 10.2863 48.7952 9.04736L44.783 13.0483Z" fill="url(#paint7_linear_1_30)"/>
<path opacity="0.43" d="M35.0195 6.72878C36.1675 7.10387 37.2701 7.55853 38.3271 8.09275L41.1573 3.1939C39.6683 2.40963 38.1112 1.76173 36.4858 1.25024L35.0195 6.72878Z" fill="#406EB2"/>
<path opacity="0.43" d="M40.3162 9.24065C41.3164 9.88852 42.2712 10.616 43.1577 11.423L47.1586 7.42208C45.9197 6.28545 44.5785 5.2511 43.1463 4.3418L40.3162 9.24065Z" fill="#406EB2"/>
<path opacity="0.43" d="M29.2566 5.66037C30.4728 5.7172 31.6549 5.87633 32.8029 6.12639L34.2691 0.659227C32.6437 0.295507 30.9729 0.0795637 29.2566 0V5.66037Z" fill="#406EB2"/>
<path d="M6.12641 32.8029C5.87635 31.6549 5.72858 30.4614 5.66039 29.2566H0C0.0681975 30.9729 0.295525 32.6437 0.659244 34.2691L6.12641 32.8029Z" fill="url(#paint8_linear_1_30)"/>
<path d="M8.09271 38.3269C7.54713 37.2698 7.09249 36.1673 6.72877 35.0193L1.25024 36.4855C1.76173 38.1109 2.40959 39.6681 3.19386 41.1571L8.09271 38.3269Z" fill="url(#paint9_linear_1_30)"/>
<path d="M43.1577 44.783C42.2712 45.5786 41.3278 46.306 40.3162 46.9653L43.1463 51.8755C44.5785 50.9662 45.9197 49.9319 47.1586 48.7952L43.1577 44.783Z" fill="url(#paint10_linear_1_30)"/>
<path d="M49.4885 35.0308C49.1134 36.1788 48.6587 37.2813 48.1245 38.3383L53.0234 41.1686C53.8076 39.6796 54.4555 38.1224 54.967 36.497L49.4885 35.0308Z" fill="url(#paint11_linear_1_30)"/>
<path d="M38.3271 48.1133C37.2701 48.6589 36.1675 49.1135 35.0195 49.4772L36.4858 54.9557C38.1112 54.4443 39.6683 53.7964 41.1573 53.0121L38.3271 48.1133Z" fill="url(#paint12_linear_1_30)"/>
<path d="M50.0798 23.403C50.3299 24.551 50.4777 25.7445 50.5459 26.9493H56.2063C56.1381 25.233 55.9107 23.5621 55.547 21.9368L50.0798 23.403Z" fill="url(#paint13_linear_1_30)"/>
<path d="M50.5459 29.2566C50.489 30.4728 50.3299 31.6549 50.0798 32.8029L55.547 34.2691C55.9107 32.6437 56.1267 30.9729 56.2063 29.2566H50.5459Z" fill="url(#paint14_linear_1_30)"/>
<path d="M46.9653 40.3274C46.3174 41.3276 45.59 42.2824 44.783 43.169L48.7839 47.1699C49.9205 45.931 50.9548 44.5898 51.8641 43.1576L46.9653 40.3274Z" fill="url(#paint15_linear_1_30)"/>
<path d="M15.8901 46.9653C14.8899 46.3174 13.9351 45.59 13.0485 44.783L9.04761 48.7839C10.2865 49.9205 11.6277 50.9548 13.0599 51.8641L15.8901 46.9653Z" fill="url(#paint16_linear_1_30)"/>
<path d="M11.4231 43.1575C10.6275 42.2709 9.90004 41.3275 9.24079 40.3159L4.33057 43.1461C5.23987 44.5782 6.2742 45.9195 7.41083 47.1584L11.4231 43.1575Z" fill="url(#paint17_linear_1_30)"/>
<path d="M26.9493 50.5456C25.7331 50.4888 24.551 50.3296 23.403 50.0796L21.9368 55.5468C23.5621 55.9105 25.233 56.1264 26.9493 56.206V50.5456Z" fill="url(#paint18_linear_1_30)"/>
<path d="M21.1866 49.4884C20.0386 49.1134 18.9361 48.6587 17.879 48.1245L15.0488 53.0234C16.5378 53.8076 18.095 54.4555 19.7204 54.967L21.1866 49.4884Z" fill="url(#paint19_linear_1_30)"/>
<path d="M32.8029 50.0796C31.6549 50.3296 30.4614 50.4774 29.2566 50.5456V56.206C30.9729 56.1378 32.6437 55.9105 34.2691 55.5468L32.8029 50.0796Z" fill="url(#paint20_linear_1_30)"/>
<defs>
<linearGradient id="paint0_linear_1_30" x1="-4.60924" y1="3.06638" x2="266.194" y2="3.06638" gradientUnits="userSpaceOnUse">
<stop offset="0.0101" stop-color="#F408AB"/>
<stop offset="1" stop-color="#27B7FF"/>
</linearGradient>
<linearGradient id="paint1_linear_1_30" x1="-4.60899" y1="7.88252" x2="266.195" y2="7.88252" gradientUnits="userSpaceOnUse">
<stop offset="0.0101" stop-color="#F408AB"/>
<stop offset="1" stop-color="#27B7FF"/>
</linearGradient>
<linearGradient id="paint2_linear_1_30" x1="-4.6093" y1="4.67127" x2="266.195" y2="4.67127" gradientUnits="userSpaceOnUse">
<stop offset="0.0101" stop-color="#F408AB"/>
<stop offset="1" stop-color="#27B7FF"/>
</linearGradient>
<linearGradient id="paint3_linear_1_30" x1="-4.60887" y1="12.4679" x2="266.188" y2="12.4679" gradientUnits="userSpaceOnUse">
<stop offset="0.0101" stop-color="#F408AB"/>
<stop offset="1" stop-color="#27B7FF"/>
</linearGradient>
<linearGradient id="paint4_linear_1_30" x1="-4.60901" y1="24.4485" x2="266.193" y2="24.4485" gradientUnits="userSpaceOnUse">
<stop offset="0.0101" stop-color="#F408AB"/>
<stop offset="1" stop-color="#27B7FF"/>
</linearGradient>
<linearGradient id="paint5_linear_1_30" x1="-4.60907" y1="18.1166" x2="266.191" y2="18.1166" gradientUnits="userSpaceOnUse">
<stop offset="0.0101" stop-color="#F408AB"/>
<stop offset="1" stop-color="#27B7FF"/>
</linearGradient>
<linearGradient id="paint6_linear_1_30" x1="50.001" y1="18.1166" x2="77.4211" y2="18.1166" gradientUnits="userSpaceOnUse">
<stop offset="0.0101" stop-color="#F408AB"/>
<stop offset="1" stop-color="#27B7FF"/>
</linearGradient>
<linearGradient id="paint7_linear_1_30" x1="50.0011" y1="12.4679" x2="77.4214" y2="12.4679" gradientUnits="userSpaceOnUse">
<stop offset="0.0101" stop-color="#F408AB"/>
<stop offset="1" stop-color="#27B7FF"/>
</linearGradient>
<linearGradient id="paint8_linear_1_30" x1="-4.60901" y1="31.7625" x2="266.193" y2="31.7625" gradientUnits="userSpaceOnUse">
<stop offset="0.0101" stop-color="#F408AB"/>
<stop offset="1" stop-color="#27B7FF"/>
</linearGradient>
<linearGradient id="paint9_linear_1_30" x1="-4.60893" y1="38.0943" x2="266.19" y2="38.0943" gradientUnits="userSpaceOnUse">
<stop offset="0.0101" stop-color="#F408AB"/>
<stop offset="1" stop-color="#27B7FF"/>
</linearGradient>
<linearGradient id="paint10_linear_1_30" x1="-4.6092" y1="48.3285" x2="266.193" y2="48.3285" gradientUnits="userSpaceOnUse">
<stop offset="0.0101" stop-color="#F408AB"/>
<stop offset="1" stop-color="#27B7FF"/>
</linearGradient>
<linearGradient id="paint11_linear_1_30" x1="-4.60913" y1="38.0944" x2="266.192" y2="38.0944" gradientUnits="userSpaceOnUse">
<stop offset="0.0101" stop-color="#F408AB"/>
<stop offset="1" stop-color="#27B7FF"/>
</linearGradient>
<linearGradient id="paint12_linear_1_30" x1="-4.60907" y1="51.5397" x2="266.193" y2="51.5397" gradientUnits="userSpaceOnUse">
<stop offset="0.0101" stop-color="#F408AB"/>
<stop offset="1" stop-color="#27B7FF"/>
</linearGradient>
<linearGradient id="paint13_linear_1_30" x1="50.0013" y1="24.4484" x2="77.4215" y2="24.4484" gradientUnits="userSpaceOnUse">
<stop offset="0.0101" stop-color="#F408AB"/>
<stop offset="1" stop-color="#27B7FF"/>
</linearGradient>
<linearGradient id="paint14_linear_1_30" x1="-4.60924" y1="31.7625" x2="266.194" y2="31.7625" gradientUnits="userSpaceOnUse">
<stop offset="0.0101" stop-color="#F408AB"/>
<stop offset="1" stop-color="#27B7FF"/>
</linearGradient>
<linearGradient id="paint15_linear_1_30" x1="-4.60939" y1="43.7431" x2="266.193" y2="43.7431" gradientUnits="userSpaceOnUse">
<stop offset="0.0101" stop-color="#F408AB"/>
<stop offset="1" stop-color="#27B7FF"/>
</linearGradient>
<linearGradient id="paint16_linear_1_30" x1="-4.60899" y1="48.3285" x2="266.195" y2="48.3285" gradientUnits="userSpaceOnUse">
<stop offset="0.0101" stop-color="#F408AB"/>
<stop offset="1" stop-color="#27B7FF"/>
</linearGradient>
<linearGradient id="paint17_linear_1_30" x1="-4.60875" y1="43.7429" x2="266.188" y2="43.7429" gradientUnits="userSpaceOnUse">
<stop offset="0.0101" stop-color="#F408AB"/>
<stop offset="1" stop-color="#27B7FF"/>
</linearGradient>
<linearGradient id="paint18_linear_1_30" x1="-4.60924" y1="53.1446" x2="266.194" y2="53.1446" gradientUnits="userSpaceOnUse">
<stop offset="0.0101" stop-color="#F408AB"/>
<stop offset="1" stop-color="#27B7FF"/>
</linearGradient>
<linearGradient id="paint19_linear_1_30" x1="-4.6093" y1="51.5396" x2="266.195" y2="51.5396" gradientUnits="userSpaceOnUse">
<stop offset="0.0101" stop-color="#F408AB"/>
<stop offset="1" stop-color="#27B7FF"/>
</linearGradient>
<linearGradient id="paint20_linear_1_30" x1="-4.60941" y1="53.1446" x2="266.194" y2="53.1446" gradientUnits="userSpaceOnUse">
<stop offset="0.0101" stop-color="#F408AB"/>
<stop offset="1" stop-color="#27B7FF"/>
</linearGradient>
</defs>
</svg>
